# Blender v2.93.6 OBJ File: 'roses.blend'
# www.blender.org
mtllib star.mtl
o Star_Cylinder.011
v 0.000000 -0.144985 -0.096780
v 0.258743 0.043003 -0.096780
v 0.159912 0.347173 -0.096780
v -0.159912 0.347173 -0.096780
v -0.258743 0.043003 -0.096780
v -0.425810 0.231481 -0.023483
v -0.405857 0.292890 -0.023483
v -0.032285 0.564306 -0.023483
v 0.032284 0.564306 -0.023483
v 0.405856 0.292890 -0.023483
v 0.425809 0.231481 -0.023483
v 0.283118 -0.207679 -0.023483
v 0.230880 -0.245632 -0.023483
v -0.230880 -0.245632 -0.023483
v -0.283118 -0.207679 -0.023483
v 0.000000 0.127075 -0.168345
v 0.000000 -0.144985 0.096780
v 0.258743 0.043003 0.096780
v 0.159912 0.347173 0.096780
v -0.159912 0.347173 0.096780
v -0.258743 0.043003 0.096780
v -0.425810 0.231481 0.023483
v -0.405857 0.292890 0.023483
v -0.032285 0.564306 0.023483
v 0.032285 0.564306 0.023483
v 0.405856 0.292890 0.023483
v 0.425809 0.231481 0.023483
v 0.283118 -0.207679 0.023483
v 0.230880 -0.245632 0.023483
v -0.230880 -0.245632 0.023483
v -0.283118 -0.207679 0.023483
v 0.000000 0.127074 0.168345
v 0.258743 0.043003 -0.000000
v 0.159912 0.347173 -0.000000
v -0.258743 0.043003 0.000000
v -0.159912 0.347173 0.000000
v 0.000000 -0.144985 -0.000000
v 0.283118 -0.207679 -0.000000
v 0.230880 -0.245632 -0.000000
v 0.032285 0.564306 0.000000
v -0.032285 0.564306 0.000000
v -0.283118 -0.207679 -0.000000
v -0.230880 -0.245632 -0.000000
v 0.405856 0.292890 -0.000000
v 0.425809 0.231481 -0.000000
v -0.405857 0.292890 0.000000
v -0.425810 0.231481 0.000000
vt 0.841104 0.446446
vt 0.841104 0.665666
vt 0.633581 0.665666
vt 0.209525 0.001001
vt 0.001001 0.001001
vt 0.001001 0.221221
vt 0.209525 0.221221
vt 0.209525 0.223223
vt 0.001001 0.223223
vt 0.001001 0.443443
vt 0.209525 0.443443
vt 0.420052 0.001001
vt 0.211527 0.001001
vt 0.211527 0.221221
vt 0.420052 0.221221
vt 0.420052 0.223223
vt 0.211527 0.223223
vt 0.211527 0.443443
vt 0.420052 0.443443
vt 0.209525 0.445445
vt 0.001001 0.445445
vt 0.001001 0.665666
vt 0.209525 0.665666
vt 0.841104 0.945445
vt 0.790475 0.945445
vt 0.790475 0.998999
vt 0.841104 0.998999
vt 0.788473 0.945445
vt 0.737843 0.945445
vt 0.737843 0.998999
vt 0.788473 0.998999
vt 0.735841 0.945445
vt 0.685212 0.945445
vt 0.685212 0.998999
vt 0.735841 0.998999
vt 0.423055 0.221221
vt 0.630578 0.221221
vt 0.630578 0.002002
vt 0.630578 0.224224
vt 0.630578 0.443443
vt 0.423055 0.443443
vt 0.420052 0.446446
vt 0.212528 0.665666
vt 0.420052 0.665666
vt 0.630578 0.446446
vt 0.423055 0.665666
vt 0.630578 0.665666
vt 0.893736 0.667668
vt 0.843106 0.667668
vt 0.843106 0.887888
vt 0.893736 0.887888
vt 0.630578 0.945445
vt 0.579948 0.945445
vt 0.579948 0.998999
vt 0.630578 0.998999
vt 0.683210 0.945445
vt 0.632580 0.945445
vt 0.632580 0.998999
vt 0.683210 0.998999
vt 0.209525 0.943443
vt 0.209525 0.889890
vt 0.001001 0.889890
vt 0.001001 0.943443
vt 0.893736 0.445445
vt 0.843106 0.445445
vt 0.843106 0.665666
vt 0.893736 0.665666
vt 0.841104 0.887888
vt 0.841104 0.834334
vt 0.632580 0.834334
vt 0.632580 0.887888
vt 0.946367 0.667668
vt 0.895738 0.667668
vt 0.895738 0.887888
vt 0.946367 0.887888
vt 0.841104 0.721221
vt 0.841104 0.667668
vt 0.632580 0.667668
vt 0.632580 0.721221
vt 0.893736 0.001001
vt 0.843106 0.001001
vt 0.843106 0.221221
vt 0.893736 0.221221
vt 0.841104 0.776777
vt 0.841104 0.723223
vt 0.632580 0.723223
vt 0.632580 0.776777
vt 0.893736 0.223223
vt 0.843106 0.223223
vt 0.843106 0.443443
vt 0.893736 0.443443
vt 0.841104 0.832332
vt 0.841104 0.778779
vt 0.632580 0.778779
vt 0.632580 0.832332
vt 0.632580 0.664665
vt 0.840103 0.445445
vt 0.632580 0.445445
vt 0.630578 0.667668
vt 0.422054 0.667668
vt 0.422054 0.887888
vt 0.630578 0.887888
vt 0.841104 0.223223
vt 0.632580 0.223223
vt 0.632580 0.443443
vt 0.841104 0.443443
vt 0.420052 0.667668
vt 0.211527 0.667668
vt 0.211527 0.887888
vt 0.420052 0.887888
vt 0.841104 0.001001
vt 0.632580 0.001001
vt 0.632580 0.221221
vt 0.841104 0.221221
vt 0.209525 0.667668
vt 0.001001 0.667668
vt 0.001001 0.887888
vt 0.209525 0.887888
vt 0.577946 0.945445
vt 0.527317 0.945445
vt 0.527317 0.998999
vt 0.577946 0.998999
vt 0.525315 0.945445
vt 0.474685 0.945445
vt 0.474685 0.998999
vt 0.525315 0.998999
vt 0.472683 0.945445
vt 0.422054 0.945445
vt 0.422054 0.998999
vt 0.472683 0.998999
vt 0.629577 0.001001
vt 0.422054 0.220220
vt 0.422054 0.001001
vt 0.422054 0.442442
vt 0.629577 0.223223
vt 0.422054 0.223223
vt 0.211527 0.664665
vt 0.211527 0.445445
vt 0.419051 0.445445
vt 0.422054 0.664665
vt 0.422054 0.445445
vt 0.629577 0.445445
vt 0.946367 0.665666
vt 0.946367 0.445445
vt 0.895738 0.445445
vt 0.895738 0.665666
vt 0.946367 0.889890
vt 0.895738 0.889890
vt 0.895738 0.943443
vt 0.946367 0.943443
vt 0.893736 0.889890
vt 0.843106 0.889890
vt 0.843106 0.943443
vt 0.893736 0.943443
vt 0.001001 0.998999
vt 0.209525 0.998999
vt 0.209525 0.945445
vt 0.001001 0.945445
vt 0.998999 0.221221
vt 0.998999 0.001001
vt 0.948369 0.001001
vt 0.948369 0.221221
vt 0.211527 0.998999
vt 0.420052 0.998999
vt 0.420052 0.945445
vt 0.211527 0.945445
vt 0.998999 0.443443
vt 0.998999 0.223223
vt 0.948369 0.223223
vt 0.948369 0.443443
vt 0.632580 0.943443
vt 0.841104 0.943443
vt 0.841104 0.889890
vt 0.632580 0.889890
vt 0.946367 0.443443
vt 0.946367 0.223223
vt 0.895738 0.223223
vt 0.895738 0.443443
vt 0.422054 0.943443
vt 0.630578 0.943443
vt 0.630578 0.889890
vt 0.422054 0.889890
vt 0.946367 0.221221
vt 0.946367 0.001001
vt 0.895738 0.001001
vt 0.895738 0.221221
vt 0.211527 0.943443
vt 0.420052 0.943443
vt 0.420052 0.889890
vt 0.211527 0.889890
vn 0.2943 0.0956 -0.9509
vn 0.2941 0.0956 -0.9510
vn 0.1819 -0.2504 -0.9509
vn 0.1819 -0.2503 -0.9509
vn 0.1880 -0.2588 -0.9475
vn -0.0000 0.3095 -0.9509
vn -0.0000 0.3198 -0.9475
vn -0.2943 0.0956 -0.9509
vn -0.3042 0.0988 -0.9475
vn -0.1819 -0.2504 -0.9509
vn -0.1819 -0.2503 -0.9509
vn -0.1880 -0.2588 -0.9475
vn 0.3042 0.0988 -0.9475
vn 0.0000 1.0000 0.0000
vn -0.5878 -0.8090 0.0000
vn -0.9511 0.3090 0.0000
vn -0.1818 -0.2502 -0.9510
vn 0.1818 -0.2502 -0.9510
vn -0.2941 0.0956 -0.9510
vn -0.0000 0.3092 -0.9510
vn -0.2155 0.9765 0.0000
vn 0.9511 0.3090 0.0000
vn 0.5878 -0.8090 0.0000
vn 0.3996 -0.9167 0.0000
vn 0.8621 0.5067 0.0000
vn 0.7483 -0.6633 -0.0000
vn 0.9953 0.0968 0.0000
vn -0.3996 -0.9167 0.0000
vn -0.8621 0.5067 0.0000
vn -0.7483 -0.6633 0.0000
vn -0.9953 0.0968 0.0000
vn 0.2155 0.9765 0.0000
vn 0.2943 0.0956 0.9509
vn 0.2941 0.0956 0.9510
vn 0.1819 -0.2503 0.9509
vn 0.1880 -0.2588 0.9475
vn 0.1819 -0.2504 0.9509
vn 0.0000 0.3095 0.9509
vn 0.0000 0.3198 0.9475
vn -0.2943 0.0956 0.9509
vn -0.3042 0.0988 0.9475
vn -0.1819 -0.2503 0.9509
vn -0.1880 -0.2588 0.9475
vn 0.3042 0.0988 0.9475
vn -0.1818 -0.2502 0.9510
vn 0.1818 -0.2502 0.9510
vn -0.2941 0.0956 0.9510
vn 0.0000 0.3092 0.9510
usemtl Yellow
s 1
f 2/1/1 16/2/2 3/3/1
f 1/4/3 2/5/4 12/6/5 13/7/5
f 3/8/6 4/9/6 8/10/7 9/11/7
f 4/12/8 5/13/8 6/14/9 7/15/9
f 5/16/10 1/17/11 14/18/12 15/19/12
f 2/20/1 3/21/1 10/22/13 11/23/13
f 40/24/14 9/25/14 8/26/14 41/27/14
f 42/28/15 15/29/15 14/30/15 43/31/15
f 46/32/16 7/33/16 6/34/16 47/35/16
f 5/36/10 16/37/17 1/38/11
f 1/39/3 16/40/18 2/41/4
f 5/42/8 4/43/8 16/44/19
f 4/45/6 3/46/6 16/47/20
f 7/48/21 46/49/21 36/50/21 4/51/21
f 10/52/22 44/53/22 45/54/22 11/55/22
f 12/56/23 38/57/23 39/58/23 13/59/23
f 1/60/24 37/61/24 43/62/24 14/63/24
f 9/64/25 40/65/25 34/66/25 3/67/25
f 11/68/26 45/69/26 33/70/26 2/71/26
f 2/72/27 33/73/27 38/74/27 12/75/27
f 13/76/28 39/77/28 37/78/28 1/79/28
f 4/80/29 36/81/29 41/82/29 8/83/29
f 5/84/30 35/85/30 47/86/30 6/87/30
f 15/88/31 42/89/31 35/90/31 5/91/31
f 3/92/32 34/93/32 44/94/32 10/95/32
f 18/96/33 19/97/33 32/98/34
f 17/99/35 29/100/36 28/101/36 18/102/37
f 19/103/38 25/104/39 24/105/39 20/106/38
f 20/107/40 23/108/41 22/109/41 21/110/40
f 21/111/42 31/112/43 30/113/43 17/114/42
f 18/115/33 27/116/44 26/117/44 19/118/33
f 40/119/14 41/120/14 24/121/14 25/122/14
f 42/123/15 43/124/15 30/125/15 31/126/15
f 46/127/16 47/128/16 22/129/16 23/130/16
f 21/131/42 17/132/42 32/133/45
f 17/134/35 18/135/37 32/136/46
f 21/137/40 32/138/47 20/139/40
f 20/140/38 32/141/48 19/142/38
f 23/143/21 20/144/21 36/145/21 46/146/21
f 26/147/22 27/148/22 45/149/22 44/150/22
f 28/151/23 29/152/23 39/153/23 38/154/23
f 17/155/24 30/156/24 43/157/24 37/158/24
f 25/159/25 19/160/25 34/161/25 40/162/25
f 27/163/26 18/164/26 33/165/26 45/166/26
f 18/167/27 28/168/27 38/169/27 33/170/27
f 29/171/28 17/172/28 37/173/28 39/174/28
f 20/175/29 24/176/29 41/177/29 36/178/29
f 21/179/30 22/180/30 47/181/30 35/182/30
f 31/183/31 21/184/31 35/185/31 42/186/31
f 19/187/32 26/188/32 44/189/32 34/190/32
